<svg width="45" height="45" viewBox="0 0 45 45" fill="none" xmlns="http://www.w3.org/2000/svg">
<path d="M22.5 14.0625C24.0533 14.0625 25.3125 12.8033 25.3125 11.25C25.3125 9.6967 24.0533 8.4375 22.5 8.4375C20.9467 8.4375 19.6875 9.6967 19.6875 11.25C19.6875 12.8033 20.9467 14.0625 22.5 14.0625Z" fill="#1C1B1E"/>
<path d="M22.5 25.3125C24.0533 25.3125 25.3125 24.0533 25.3125 22.5C25.3125 20.9467 24.0533 19.6875 22.5 19.6875C20.9467 19.6875 19.6875 20.9467 19.6875 22.5C19.6875 24.0533 20.9467 25.3125 22.5 25.3125Z" fill="#1C1B1E"/>
<path d="M22.5 35.625C24.0533 35.625 25.3125 34.3658 25.3125 32.8125C25.3125 31.2592 24.0533 30 22.5 30C20.9467 30 19.6875 31.2592 19.6875 32.8125C19.6875 34.3658 20.9467 35.625 22.5 35.625Z" fill="#1C1B1E"/>
</svg>
