<svg width="33" height="26" viewBox="0 0 33 26" fill="none" xmlns="http://www.w3.org/2000/svg">
<g clip-path="url(#clip0_21_30)">
<path d="M7.08838 11.9853C6.73812 11.9853 6.40732 12.0956 6.16084 12.2979L0.942571 16.5157C0.692846 16.7179 0.556633 16.9832 0.556633 17.2668C0.556633 17.5505 0.692846 17.8184 0.942571 18.018C1.1923 18.2202 1.5231 18.3305 1.87336 18.3305C2.22362 18.3305 2.55767 18.2202 2.80415 18.018L8.01593 13.7975C8.26566 13.5953 8.40187 13.33 8.40187 13.0464C8.40187 12.7627 8.26566 12.4948 8.01593 12.2952C7.76945 12.0956 7.43865 11.9853 7.08838 11.9853Z" fill="white"/>
<path d="M31.6384 0.97699C31.1325 0.365058 30.2957 0 29.4006 0C29.0471 0 28.7001 0.057779 28.3628 0.170711L8.85836 6.66297C7.81081 7.01227 7.15245 7.83168 7.18488 8.75351C7.21731 9.6701 7.93405 10.458 9.01403 10.7574L16.3144 12.7744L18.8117 18.6862C19.1911 19.5871 20.1932 20.1675 21.3705 20.1675C22.4862 20.1675 23.4429 19.6475 23.8678 18.8123L31.8881 3.01501C32.2384 2.32954 32.1443 1.58367 31.6384 0.97699ZM21.2959 18.0034L18.5911 11.5978C18.4614 11.2853 18.1565 11.0384 17.7706 10.9334L9.8605 8.74563C9.83131 8.73776 9.81509 8.7325 9.8086 8.69048C9.81185 8.64846 9.82482 8.64321 9.85401 8.6327L29.352 2.14307C29.3812 2.1352 29.3941 2.13257 29.3941 2.13257C29.4071 2.13257 29.4298 2.14045 29.4493 2.16408C29.4525 2.16671 29.4525 2.16934 29.4558 2.17196C29.4622 2.17722 29.4622 2.18247 29.4622 2.18247C29.4622 2.18247 29.4622 2.19297 29.4525 2.21398C29.4525 2.21661 29.4493 2.21924 29.4493 2.22186L21.4289 18.006C21.4159 18.0323 21.4094 18.0402 21.364 18.0402C21.3121 18.0428 21.3057 18.027 21.2959 18.0034Z" fill="white"/>
<path d="M15.0387 19.4842L9.83018 23.702C9.57721 23.9042 9.43776 24.1721 9.43776 24.461C9.43776 24.7447 9.57397 25.0126 9.8237 25.2095C10.0734 25.4091 10.401 25.5194 10.7545 25.5194C11.108 25.5194 11.4388 25.4091 11.6853 25.2069L16.8971 20.9864C17.4095 20.5715 17.4095 19.8965 16.8971 19.4815C16.3846 19.0692 15.5511 19.0692 15.0387 19.4842Z" fill="white"/>
<path d="M10.4038 18.6298C10.7573 18.6298 11.0881 18.5195 11.3346 18.3173L15.4145 15.0107C15.6642 14.8085 15.8004 14.5433 15.8004 14.2596C15.8004 13.976 15.6642 13.7081 15.4145 13.5085C14.902 13.0935 14.0685 13.0935 13.5561 13.5085L9.47297 16.815C9.22324 17.0172 9.08703 17.2825 9.08703 17.5661C9.08703 17.8498 9.22324 18.1177 9.47297 18.3173C9.72269 18.5195 10.0535 18.6298 10.4038 18.6298Z" fill="white"/>
</g>
<defs>
<clipPath id="clip0_21_30">
<rect width="31.5349" height="25.5278" fill="white" transform="translate(0.548096)"/>
</clipPath>
</defs>
</svg>
