<svg width="35" height="28" viewBox="0 0 35 28" fill="none" xmlns="http://www.w3.org/2000/svg">
<path d="M32.3226 13.745C31.8221 13.745 31.3421 13.903 30.9882 14.1843C30.6343 14.4656 30.4355 14.8472 30.4355 15.245V23.6C30.4355 23.8387 30.3162 24.0676 30.1039 24.2364C29.8915 24.4052 29.6035 24.5 29.3032 24.5H5.1484C4.8481 24.5 4.56011 24.4052 4.34777 24.2364C4.13543 24.0676 4.01614 23.8387 4.01614 23.6V4.4C4.01614 4.16131 4.13543 3.93239 4.34777 3.7636C4.56011 3.59482 4.8481 3.5 5.1484 3.5H23.2079C23.7084 3.5 24.1884 3.34196 24.5423 3.06066C24.8962 2.77936 25.095 2.39782 25.095 2C25.095 1.60218 24.8962 1.22064 24.5423 0.93934C24.1884 0.658035 23.7084 0.5 23.2079 0.5H5.1484C3.84865 0.503951 2.60356 0.916111 1.6845 1.64665C0.765438 2.37719 0.246914 3.36687 0.241943 4.4V23.6C0.246914 24.6331 0.765438 25.6228 1.6845 26.3534C2.60356 27.0839 3.84865 27.496 5.1484 27.5H29.3032C30.603 27.496 31.8481 27.0839 32.7671 26.3534C33.6862 25.6228 34.2047 24.6331 34.2097 23.6V15.245C34.2097 14.8472 34.0109 14.4656 33.657 14.1843C33.3031 13.903 32.8231 13.745 32.3226 13.745V13.745Z" fill="black"/>
<path d="M14.8103 12.5C14.4562 12.2469 13.9948 12.1095 13.5186 12.1155C13.0424 12.1215 12.5866 12.2704 12.2428 12.5323C11.8989 12.7943 11.6924 13.1499 11.6646 13.5278C11.6368 13.9057 11.7898 14.278 12.0929 14.57L16.2823 18.065C16.4577 18.2113 16.6684 18.3278 16.9019 18.4077C17.1354 18.4876 17.3868 18.5292 17.641 18.53C17.8938 18.5312 18.1444 18.4919 18.3778 18.4146C18.6112 18.3373 18.8227 18.2235 18.9997 18.08L31.7942 7.58C31.9677 7.43817 32.1043 7.27057 32.1963 7.08677C32.2883 6.90298 32.3338 6.70657 32.3303 6.50879C32.3268 6.311 32.2743 6.11569 32.1759 5.93403C32.0774 5.75236 31.9349 5.58789 31.7565 5.45C31.578 5.31211 31.3672 5.20351 31.136 5.13039C30.9047 5.05727 30.6576 5.02108 30.4088 5.02386C30.16 5.02665 29.9143 5.06836 29.6857 5.14663C29.4572 5.22489 29.2503 5.33817 29.0768 5.48L17.6598 14.87L14.8103 12.5Z" fill="black"/>
</svg>
