<svg width="54" height="54" viewBox="0 0 54 54" fill="none" xmlns="http://www.w3.org/2000/svg">
<path fill-rule="evenodd" clip-rule="evenodd" d="M6.1875 6.75C6.1875 4.57538 7.95038 2.8125 10.125 2.8125H32.625C33.557 2.8125 34.3125 3.56802 34.3125 4.5C34.3125 5.43198 33.557 6.1875 32.625 6.1875H10.125C9.81434 6.1875 9.5625 6.43934 9.5625 6.75V47.25C9.5625 47.5607 9.81432 47.8125 10.125 47.8125H41.625C41.9357 47.8125 42.1875 47.5607 42.1875 47.25V22.5052C42.1875 21.5732 42.943 20.8177 43.875 20.8177C44.807 20.8177 45.5625 21.5732 45.5625 22.5052V47.25C45.5625 49.4247 43.7997 51.1875 41.625 51.1875H10.125C7.95039 51.1875 6.1875 49.4247 6.1875 47.25V6.75Z" fill="#1C1B1E"/>
<path fill-rule="evenodd" clip-rule="evenodd" d="M12.9375 20.25C12.9375 19.318 13.693 18.5625 14.625 18.5625H23.625C24.557 18.5625 25.3125 19.318 25.3125 20.25C25.3125 21.182 24.557 21.9375 23.625 21.9375H14.625C13.693 21.9375 12.9375 21.182 12.9375 20.25Z" fill="#1C1B1E"/>
<path fill-rule="evenodd" clip-rule="evenodd" d="M12.9375 31.5C12.9375 30.568 13.693 29.8125 14.625 29.8125H28.125C29.057 29.8125 29.8125 30.568 29.8125 31.5C29.8125 32.432 29.057 33.1875 28.125 33.1875H14.625C13.693 33.1875 12.9375 32.432 12.9375 31.5Z" fill="#1C1B1E"/>
<path fill-rule="evenodd" clip-rule="evenodd" d="M47.3172 5.55764C47.9762 6.21664 47.9762 7.28511 47.3172 7.94412L33.8232 21.4383C33.1642 22.0973 32.0957 22.0973 31.4367 21.4383C30.7777 20.7793 30.7777 19.7108 31.4367 19.0518L44.9307 5.55765C45.5897 4.89864 46.6582 4.89863 47.3172 5.55764Z" fill="#1C1B1E"/>
</svg>
