<svg width="54" height="54" viewBox="0 0 54 54" fill="none" xmlns="http://www.w3.org/2000/svg">
<path fill-rule="evenodd" clip-rule="evenodd" d="M16.5618 5.33987C16.7007 4.52973 17.4031 3.9375 18.225 3.9375H35.775C36.597 3.9375 37.2994 4.52973 37.4383 5.33987L38.7883 13.2149L35.4618 13.7851L34.3522 7.3125H19.6479L18.5383 13.7851L15.2118 13.2149L16.5618 5.33987Z" fill="#1C1B1E"/>
<path fill-rule="evenodd" clip-rule="evenodd" d="M5.0625 13.5C5.0625 12.568 5.81802 11.8125 6.75 11.8125H47.25C48.182 11.8125 48.9375 12.568 48.9375 13.5C48.9375 14.432 48.182 15.1875 47.25 15.1875H6.75C5.81802 15.1875 5.0625 14.432 5.0625 13.5Z" fill="#1C1B1E"/>
<path fill-rule="evenodd" clip-rule="evenodd" d="M11.1439 12.3458C11.463 12.0055 11.9086 11.8125 12.375 11.8125H41.625C42.0914 11.8125 42.537 12.0055 42.8561 12.3458C43.1751 12.6861 43.339 13.1432 43.309 13.6086L41.059 48.4836C41.0017 49.3716 40.2648 50.0625 39.375 50.0625H14.625C13.7352 50.0625 12.9983 49.3716 12.941 48.4836L10.691 13.6086C10.661 13.1432 10.8249 12.6861 11.1439 12.3458ZM14.1749 15.1875L16.2071 46.6875H37.7929L39.8251 15.1875H14.1749Z" fill="#1C1B1E"/>
<path fill-rule="evenodd" clip-rule="evenodd" d="M19.6875 39.375C19.6875 38.443 20.443 37.6875 21.375 37.6875H32.625C33.557 37.6875 34.3125 38.443 34.3125 39.375C34.3125 40.307 33.557 41.0625 32.625 41.0625H21.375C20.443 41.0625 19.6875 40.307 19.6875 39.375Z" fill="#1C1B1E"/>
</svg>
